<?xml version="1.0" encoding="UTF-8"?>
<svg id="Capa_1" xmlns="http://www.w3.org/2000/svg" version="1.1" viewBox="0 0 1103.5 887.1">
  <!-- Generator: Adobe Illustrator 29.0.1, SVG Export Plug-In . SVG Version: 2.1.0 Build 192)  -->
  <defs>
    <style>
      .st0 {
        fill: #00ff66;
      }
    </style>
  </defs>
  <path class="st0" d="M356.8,290.2c0-2.2.7-7.4-.9-8.6l-11.1-.4,1-14h11s0-11,0-11h10s0-21,0-21l6.3-.2,1.7-1.3v-15c2-2.3,7-2.3,9,0v55.4h7v16h13v-53.9l6-1v-21h8v53.9h9v15h17v-64.4c1.6-2.3,4.6-1.4,7-1.5l1-16h17v15l6.3.2,1.7,1.3v56.4h7v14.5l7.6,2.4,1.4,9.6c2.7.4,12,1.6,12.9-1.2l.3-13.2,7.9-1.1c1-4.5-1.1-9.5-1.1-13.5,0-13.9,2.9-30.1,1.2-44-.2-1.9-1.9-1-2.2-2.9-.5-3.8.5-8.6,0-12.6h8v30.5l1.5,1.5h14.5c.7-13-2.6-27.6-1-40.5s.1-2.6,1.5-3.4h18.5l2,8.5,7,.5c-2.4,8.3-.5,17.5,0,26h17.5l1.5-1.5v-21.5h7v-28h39l1,10,20,.4.9,8.6,24.9,1,.5,8,6.6.9,1.1,6.9,12.2.3,1.3,1.3.4,6.5,8.9,1.1v10.9c.1,0,11.1,0,11.1,0v16c1.9.2,8.3-.9,8.7,1.5l-.8,14.9,4.8,1.8c2,1.9-.8,18.7.2,22.7h8.4c0,.1,1.5,1.6,1.5,1.6v54.3c.1,0,10.2,1.6,10.2,1.6v76.3c0,0-9.9,1.1-9.9,1.1l-1.3,13.7h-6.9v22.1h-14v17.5l-4,1.5,1,6.9-19,1,1,14h-17.5l-1.3,1.6-.2,7.3-9-.5-.9,6.6h-18v11s-26,1-26,1v8.4c-.1,0-1.6,1.5-1.6,1.5-9.3.5-17.6-3.3-27.3-1.9v-8s-16,0-16,0c2.5-5.6-1.5-7.9-7-7v-7s13.1-.4,13.1-.4l.9-7.6h19v-8.9c0,0,17-1,17-1v-10s14,0,14,0v-13h14v-12s10-1,10-1v-16c12.4,5.3,9.3-7.4,8.1-15.4.7-2.8,9.4-1.2,11.9-1.6v-11h-20v-6h36v-9s9,0,9,0l.9-8.6,17.1-.4c-1.4-9-2.1-13.4,9-12v11s9,0,9,0l-1.5-11-6.5-1v-19h-13.3c0,.1-1.5,1.6-1.5,1.6l-1.1,7.9-12.1.4v13s-14,0-14,0v9s-11.9.1-11.9.1l-1.1,8.9h-18s-.9,8.5-.9,8.5l-9.1.4v15h-11.3s-1.7,7-1.7,7l-15,1v11s-20,1-20,1v9s-27,1-27,1l-.4-9.1-7.6-.9.6-19-9.6-.9-.4-8.1-9.6-.9v-7s-34.5,0-34.5,0c-3.2,1.8-.5,14-1.5,15-2.6.5-13.2-1.4-13.9,1.6l.9,29.4h-51.9v-9h-19l-1-6.5c-4.5-3.5-15.8,1.2-17.6-1.4l-.4-13.1h-15s-.1-7.3-.1-7.3l-1.5-1.5-15.3.9v17h7s0,10,0,10h9s0,16,0,16h15l.4,13.1,8.6.9v12s11.5.9,11.5.9l.4,10.1h18v10h21v14l-8.1.4-2.1,7.4-10.8,1.2-1.5-6h-14.5v-9h-21v-16h-16l-1-14h-15v-17h-12s-.4-12.1-.4-12.1l-8.6-.9v-17h-9s.9-20.3.9-20.3l-1.5-1.5-6.5-.7-.9-14.4h-7s0-17.5,0-17.5c-1.4-2.9-9.3-.8-10-1.5.1-4.2-.1-8.4,0-12.5.2-7.6,2.5-6.3-7.8-6.6-3-1.9,1.3-33.4-.1-38.8h7s0-24,0-24c3,0,6,0,9,0-.5,20.9,0,42.1.4,63l12.6.9.4,10.1,9.5,1,1,9.9h13s.9,7.6.9,7.6l10.1.4.9,8.6,64-.6v-8s22-1.4,22-1.4l.9-7.6,7.6-.9.4-8.1h15v-9s7,0,7,0v-23h-18v-8h-16c-.3-3,1.1-6.9-1.5-9h-17.5v-8h-15.5c-2.6-2.1-1.2-6-1.5-9h-22l1-9h-18.5l-2.5-8.6-17.4.4-1.5-1.5v-8.4c-3.4-.2-6.8.3-10.1,0ZM660.5,244.2v-24.5c-4.6-3.8-9.8-1.7-15-1.5v14l-15,1v40h17v-29h11.4c.4,0,1.6,3.2,1.6,3.5v24.5h7v-14.5l8-3v-18.5h-8s0,7,0,7l-7,1ZM705.5,272.2h-16.5l-2.4,8.6-13.1.4c-.7.7,1.4,8.6-1.5,10h-21.5v8s-12,1.5-12,1.5l-1,7.5h-21v10s-21,1-21,1v12s-19.5,0-19.5,0c-3.1,1.6-.7,11.2-1.5,12h-20.3c0,.1-1.5,1.6-1.5,1.6v6.4h-18.1v17.5l7.6,1.4.4,8.1h10s.9,9.5.9,9.5l19.1.4c.5,2.7-1.4,10.9,1.6,11.9l88.3-.9v-11s21-.4,21-.4l1-10.6,11.1-.4,2-11.4h7.9v-14.1h12v-58.4l-6.1-1.9-1.4-6.6-4.5-1v-11ZM733.4,423.1v-21.5l-1.6-1.3-7.4.3-.9,8.6h-5s0,8,0,8h-13s0,12,0,12h-9s.4,11,.4,11l8.6.9v8s12,0,12,0v-16l8-1,.4-8.1,7.6-.9Z"/>
  <path class="st0" d="M356.8,290.2c.1,3.3,0,6.7,0,10l-14.5-.8c-2.4.4-1.2,6.9-1.4,8.7-3,0-6,0-9,0,0-3-.4-6.1.4-9.1l8.6-.9v-9c5.5-.7,10.8.6,16,1Z"/>
  <path class="st0" d="M860.3,504c0-16.1,0-32.2-.1-48.3l-1.5-1.5h-7.4c0-.1-.4-33.2-.4-33.2l-8.6-.9v-28h-11v-25.5c-3.5-3.1-9.6-.9-14-1.5v-20.5c-3.7-3.3-9.6-.9-14-.5v-31.5c-1.4-2.9-9.3-.8-10-1.5v-27.3c-.1,0-1.6-1.5-1.6-1.5h-8.4v-26.1h-12v-21h-15l-1.4-30-9.6-.9v-10s-12,0-12,0v-17l-16-1-.4-11-11.1-1.9c-2.1-3,1.5-10.7-.9-13.1h-16c-3-1.4-.7-10.3-1.5-11l-19-1v-14.5l-1.5-1.5h-16.5v-11.9c-7.5.3-8.8-6.6-17.1-5.5l-.9-9.6h-16c-.2,0,.2-2.1-.5-3-1.6-2.1-7.8-.6-10.5-1l-.9-8.6-20-.4-.4-8.1c-.3-.4-7.4-1.9-8.1-1.9h-23.5v-8h-48.5c-.5,0-2.2-1.6-3.5-1l-1,9h-51s-.1,8.3-.1,8.3l-1.5,1.5h-30.3c0,.1-.9,8.7-.9,8.7l-14.1.4v11s-17,0-17,0v9s-9,0-9,0v10.9c-.1,0-14,1.1-14,1.1v14.5l-1.5,1.5h-15.5v13s-13,0-13,0v12c-.7.7-8.6-1.4-10,1.5v18.5h10s0,9,0,9h-11s-.4-9.1-.4-9.1c-9.4-3.4-10.5.3-9.6,9.1l7.1.4c4.4,8.1-4.3,5.6-5.6,7.5l-.4,9.1h-15c2.5,7.7-5,7.4-5,8v17h-12v21h-9v25l-8,1v36l-15,1v49h-10v24h-9s0,28.4,0,28.4l-3.1,1.1.9,22.8-1.5,1.5h-6.4v31.1h9v28l9.9,1.1v23.8c.1,0,8.7.9,8.7.9l.4,9.1h14.5c.3,0,2.3-1,2.5-1.7l.4-9.4,8.6-.9c0,2.3.3,9.3,2,10.5,3.3,2.3,6.4-.9,5,8.5h15l-1,13,21,1.4.9,8.6h28.3c0,.1,1.5,1.6,1.5,1.6v7.4c.1,0,15.1,0,15.1,0l1.1,5.9,7.3-.9,2.6,6.5,8.1.4v10s-11,0-11,0v-10s-33.5,0-33.5,0l-2.4-7.6-7.1-.4v-7c-10.2-1.1-20,.4-30.3-.1l-1.5-1.5v-6.4c-.1,0-14.1,0-14.1,0l-.5-4-18.5-.9-1-10.6-13.9-.6v-7.9c-.1,0-8.1,0-8.1,0v-6s-8.1-.4-8.1-.4l-1.9-7.1-7.1-.4v-10s-7.6-.9-7.6-.9l.6-22.1h-9.4c-4-1.5,1.6-15.7-1.1-20s-2.4-1.1-3-2c-2.9-4.5,1-45.6.5-54h8.4c0-.1,1.5-1.6,1.5-1.6l-.7-34.7,1.5-1.5c2.9-.9,7.2,1.3,9.4-1.6v-30.5h8v-30.5c1.3-2.8,8.4-.9,9-1.5v-34s7.9-1.1,7.9-1.1l.2-26.2,1.5-1.5h8.4c-.2-6.9-2.3-13.3.1-20l6.7-1.3v-16.8c.1,0,10.1-1,10.1-1v-11.9s8.1,0,8.1,0l1-20.9h10.9v-20h12s0-12,0-12l7.6-.9.4-10.1h9s0-10,0-10c7.2.6,8.2.3,8.4-7.1l4.5-1v-8s9.9-1.1,9.9-1.1v-7.8c.1,0,11.1,0,11.1,0v-9s20,0,20,0l1-10c6,2.3,11.7-.8,18,0v-8s21,0,21,0l1-9h27v-8h40.5l1.9-8.1,90.5-.9c.6.6-1.3,7.7,1.5,9h32.5v8h26c.3,3-1.1,6.9,1.5,9h16.5v8s11.6.9,11.6.9l.4,9.1h17l.9,9.6,9.1.4,2.1,12.9h9.9c0,.1,0,11.1,0,11.1h12s0,10,0,10h13s0,10,0,10c10.1-1.5,8,5.6,8,13h11s.4,13,.4,13l8.6.9.4,15.1,10.6.9c.7.7-2.8,13.7-.1,17.4.8,1.1,4.2.5,5.9,1.2s3,5.2,7.1,4.4l-.5,16.9,10.6.9v16.9s11,1,11,1l1.1,15.9h10.8v24.1h10v32h10v23.5c1.4,2.9,9.3.8,10,1.5v20.3c.1,0,1.6,1.5,1.6,1.5h6.4v16.1h5.9c2.8,9.8-.9,19.3.5,29l9.6.9-1,33h7.4c0,.1,1.6,2.5,1.6,2.5v48.8c-1,2.8-13.6,1.6-17,1.6,0,7.3,0,14.7,0,22h-10s0,9,0,9h-9c.4-2.5-.6-6,0-8.3s2-.6,2-1.3c.3-2.4-2.4-7.6,0-11.3l7.5-1,.4-9.1c3,0,6,0,9,0Z"/>
  <path class="st0" d="M632,140.3c-2.2-.7-1.4-6-1.5-8h-25s-1.7-9-1.7-9l-51.3-1,1.1-11.9c6.4.2,13-.6,19.4-.1s7.1,1.9,10.9,2.1c14.5.7,29.3-.5,43.8,0,2.2.5,1.6,9.1,1.7,11h17v9s8,0,8,0v8s12,0,12,0v10s9.5.9,9.5.9c1.8,2.6-1.4,9.6,1.9,12.1h16.5v10s11,1,11,1v9s11,.4,11,.4l1.9,10.1,12.1.4v18s9,0,9,0l.9,5.6,9.1.4v18h6v20l13.6.9c.9,1.2.5,9.3.5,11.6s-3,12.1.6,13.3h7.4c0,.1,0,33.1,0,33.1.8.8,10.4-1.6,12,1.5v37.5h10v38h8v-14h8v35.5c2.4,2.7,6.7,1.1,10,1.5v59.9h-10v14h-6s0,9,0,9l-9.6.9-1.4,11.6-10,.4c1.5,7.8,3.2,12.4-7,11,0,2,.7,5.1-1.6,5.9h-11.4c0,.1-.4,8.2-.4,8.2l-8.6,1.4-.9,6.6h-18v7.4c-.1,0-1.6,1.5-1.6,1.5l-32.4-.4-.9,11.6h-26c-.8.8,1.6,10.4-1.5,12h-40.5v-7s11,0,11,0v-9s20,0,20,0l1-9h19v-8c9-.2,18-2.3,27,0v-10h18l1-10,25-.4.9-13.6,25.3.9c3.1-1,1.1-10,1.6-12.9h7s0-21.5,0-21.5c3.2-3,8.8-.9,13-1.5v-53.9h-12v-26.5c-1.5-3-10.2-.7-11-1.5v-30.3c-1.1-3-8.4-1.2-11-1.6v-42h-12s.9-35.3.9-35.3c-.8-2.8-7.6-1.3-9.9-1.6v-23.3c-.9-2.3-4-1.6-6-1.6v-20h-13s0-11,0-11h-7s0-8,0-8h-10c1.9-3.7-.6-7.7-.1-11.8l-9.9-1.1-1-9h-20v-10h-25l-1-11h-26v-9c-1-1-23.4.6-27.5,0s-1-2.1-2.9-2.2l-123.9,1.1-2.4,1.6v8.4c-.1,0-40.1,0-40.1,0-.8.8,1.5,9.5-1.5,11h-27.5v10h-21.5c-2.5,1.9-1.3,5.3-1.5,8-7.9-.3-11.2-1.4-10,8h-19c0,2.4.8,5.4-1.5,7h-14.5v14l-16,1v11s-13,0-13,0v16h-7.9c0,0-1,25-1,25h-13s0,41.3,0,41.3l-10.1,2.2,1.1,40.4-10.1,1.6,1.1,90.3h10s0,16,0,16h7v17.5c1.4,2.9,9.3.8,10,1.5v11.4c.1,0,1.6,1.5,1.6,1.5h6.4c0,.1,0,8.1,0,8.1l14-.6,1,11.6c5.8-.8,11.1-1.8,16.9.1v8.9h19.1v10c1.4.6,3-1,3.5-1h18.5v6.8c.1,0,8,.6,8,.6l1,6.6h21v8s8,0,8,0v8h-22v-5s-10,0-10,0v-7s-28,0-28,0v-16h-19v-10h-20v-8s-11,0-11,0l-.9-6.6-11.1-.4-1-11.9-10.5-1-.4-13.1-9.9-1-.5-15-8.6-.9-.4-15.1-8.6-.9v-98.9h9v-37h10v-32l6.3-.2,1.7-1.3v-21.5h7s.1-11.3.1-11.3l1.5-1.5,3.4.4c3.1-2,1.6-16.7,1.9-20.5l10.6-1-.6-12h12s0-9,0-9l10.9-1.1v-3.8c.1,0,11.1-1,11.1-1v-8s16,0,16,0l.4-7.1,8.6-.9v-6s18.5,0,18.5,0c2.5-1.9,1.3-5.3,1.5-8l20-.4.9-8.6,20-1v-9s45-1,45-1v-10s49.3.9,49.3.9c3-1,1.1-9.1,1.6-11.9h92.4s2.4,1.6,2.4,1.6v8.4c.1,0,33.2.6,33.2.6l.9-11.6h-18.5Z"/>
  <path class="st0" d="M868.3,605.9h37v12h15l.5,3.1,11.5.4.9,9.6,11-1,.4,14.1,8.4,2.1v5.9c.1,0,10.1,0,10.1,0l1,10.6,10-.6v27.5c1.5,3,10.2.7,11,1.5l.9,14.6,12.1.4v25h-15v-25h-14v-21.5c-1.8-3.2-13-.6-14-1.5v-9s-10,0-10,0v-13s-15,0-15,0l-.9-11.6-9.1-.4-.4-8.1-8.6-.9-.4-6.1-8.6-1.4-.9-5.6-16,1v-10h-25v9h-14.5c-3,1.5-.7,10.2-1.5,11l-12.1.4-2,11.4h-10.9c0,.1-.9,12.7-.9,12.7l-11.6,1.4-.4,19h-15.5l-1.5,1.5v21.5h-8v36h-9v-48l9-1,1.2-28.3,1.5-1.5h7.4c0-.1.4-22.2.4-22.2l9.6-.9v-11s6.6-.9,6.6-.9l.6-9.9,12.9-1.1v-11s20,0,20,0v-9h25.5c2.7,1,1,9,1.5,9Z"/>
  <path class="st0" d="M650.5,640.8h7s1.1-9.9,1.1-9.9h93.8c0-.1.4,8.9.4,8.9l5.6.9v51l-13,1v13s-94.9,0-94.9,0v-64.9ZM680.5,647.8l6-.5,1-2-1.5-1.5h-20c-2.5,1.6-.5,3.9-.5,6.4.2,7.5.2,15.5,0,23.1,0,2.6-2.4,8.4-.1,10,3.5,1.7,7.2-.7,10.6-.6,18.6.4,41.6,3.3,60,1.1,1.5-.2,2.6-.1,3.4-1.5v-37c-4.1-3-11.3-1.5-16-.5v29h-43v-26Z"/>
  <path class="st0" d="M295.4,648.8c.5,0,3.4,1.2,3.6,1.6l-.2,12.2-10.8,1.1v18l-9,.6,1.1,56.3h6.9v17.6c2.1,2.6,6,1.2,9,1.5v16l-9.6-.9-1.4-15.6-12.1-.4v-28h-9v-36h-15v20c-3.6.5-8.4-1.3-11,1.5v42.5h-10s.1-63.4.1-63.4l-13.5-.4-1.6,1.3v18.5l-16,1-.4,14.1-14.6,1.4-.9,13.6h-14c.6-3.8-.9-10,0-13.3s2.6-.7,3-3.2-.6-14,0-14.5l9.9-1v-9.9s10.1-.4,10.1-.4l.9-8.6,7.1-.4,1.9-9.5h14.3c2.5-1,1.5-4.9,1.6-7h12v16.5l2,1.1,8.5-1.5.4-21,25-1c.9-.9-1.6-11.3,1.5-13h15.5v-7c4.6.4,10-.6,14.5,0Z"/>
  <path class="st0" d="M943.2,468l.9,13.6c2.1,1.4,14-.1,17.6.4,1.8.2,1.3,1.9,2.1,2.1,2,.5,9.8-.5,10.3,0l.4,11.1,10.6.9.4,13.1,9.6.9v127.9c-3.1,0-6-.2-9.1.4s-2.8,2.4-4.3,2.6c-2.6.3-5.8-.3-8.6,0v-10s10,0,10,0v-79.9c-12.4,1.3-24.5-.5-37,0l-1-11h29l-1-43h-17v14h-12v89.9l-10-.6,1-89.3c1.9-.3,8.3,1,8.7-1.5-2-9.1-1.9-18.3-1.7-27.5h-19v21.5c-2.8,2.4-10.3,2.4-13,0v-19.5h-12v-16h45Z"/>
  <path class="st0" d="M1039.1,249.2c1.3,11-2.1,21.2-2,32h-11s0,10,0,10h-18v9h-16v8h-16c-.5,3.9,1.4,9.1-1.5,12h-17.5v9s-7.9,1.1-7.9,1.1v3.8c-.1,0-17.1.4-17.1.4l-1,8.6h-20v8h-18.5c-2.5,1.9-1.3,5.3-1.5,8l-19,1v-15h10c.7-.7-1.4-8.6,1.5-10h17.5v-15h14.5c.7,0,4.7-.5,5-.9l.5-8.1,11.1-.4.9-6.6h17.8c0-.1,1.1-9,1.1-9h16v-9h16.5l1.5-1.5v-15.5l29-1v-12s9-.4,9-.4l.9-6.6h14Z"/>
  <path class="st0" d="M499.7,545.9v10.5c-4.7,2.4-15.7-1.6-19.3-.4s-1.1,10.9-1.6,13.9h-10s0,14,0,14h-7.4c0,.1-1.5,1.6-1.5,1.6l-.6,26.4-13.6.9c.9,5.5,1.4,10.6,0,16l12.1.4.9,8.6-10,1c0-6.5-3.1-7.7-9-8l1,26h9s1,11.9,1,11.9h8.9v14h-11s0-9,0-9h-10s0-14,0-14h-9.9c-2.3-7,.4-13.3-.5-20l-10.6-.9v10c-.5.5-6.2-1.2-6.8,1.6-.5,1.6-.6,21.6-.1,23.8s.3,2,1.6,2.4h11.4c.7.8-.7,13.9,0,16.4s4.1.8,3,6.2-12.6.2-17,1.5c-.5-.4,1-1.3,1-1.5v-19.5h-9v-44l7.6-.9.4-11.1h8s0-16.5,0-16.5l1.7-1.3,8.9-1.1.4-15.1c15.8,2.2,6.7-6,10-15.9h9.9s0-14,0-14h11.9v-14h39Z"/>
  <path class="st0" d="M168,640.8l17.9-1v-7.9s46-1,46-1c-1.6,12.4,7.4,8.5,16,9v9h-16v-5h-24.5l-1.5,1.5v17.5h-24l-.9,10.6-13.1.9-.9,5.6-15.1.4-.9,11.6h17v10h-19v11h-19l-.4,11.1-12.6,1.4-.9,12.6h-8s0,25,0,25h-8.4c0-.1-1.5-1.6-1.5-1.6l.9-34.3,6.8-1.1v-10.9c.1,0,13.1,0,13.1,0v-19c3-.3,6.9,1.1,9-1.5v-18c2.3-3.8,11.4.3,13-.9l1.1-9.4,6.7-1.3,1.2-8.8h18v-15ZM150,692.8h-8s0,7.9,0,7.9c1.9.1,6.4.7,7.5-.8l.4-7.1Z"/>
  <path class="st0" d="M356.8,629.9c2.4,10.5.7,12.3-10,12l-.4,7.1-6.6.9v55.9h6s.9,9.6.9,9.6l11.1.4v15l12,1v16h9s0,10,0,10h20.5c.3,0,2.3,1,2.5,1.7v7.3s26.9,1,26.9,1v-10s-7.9,0-7.9,0c.2-1.9-2.7-9.2.4-9.7s4.8,1.8,7.1,0c2.4.4,1.2,6.9,1.5,8.7l18-.6.9,11.6h-19v12h-31v-11h-20v-10s-10,0-10,0l-.9-10.6-12.1-.4v-13s-11,0-11,0v-18h-5.9c0-.1-1.1-11-1.1-11h-11s1-36,1-36h-8s0,13,0,13h-12s.9,48.4.9,48.4l-1.5,1.4-7.3.2v-68.9l6.3-.2,1.7-1.3v-14.5h10s.1-7.4.1-7.4l1.5-1.5h20.3c.6-.8-1.3-7.9,1.5-9.1h15.5Z"/>
  <path class="st0" d="M865.3,260.2c4.4-.2,8.6.4,12.9-1.1v-9.9c.1,0,13.1-1,13.1-1l-1-19h-8s0-24,0-24h9s1-15,1-15l7.1-.4,2.4-6.6h18.5v-5h35v23h-10c-.8-.8,1.5-9.5-1.5-11h-24.5l1,11c-2-.2-4.6.5-6.4-.1s-1.3-2.6-2.3-2.9c-2.4-.6-6.6.5-9.3,0v6c-4.7-.1-8.9-1.2-8,5h7.4c0-.1,1.5-1.6,1.5-1.6v-6.4c.1,0,9.1,0,9.1,0v22h-17v17h7.9c0-.1,1.8-5,1.8-5h14.8c0,.1,1.1-3,1.1-3h8.4s1-10.9,1-10.9h14s1.1-9.9,1.1-9.9h8.9c0-.1,0-9.1,0-9.1h11s.4-8.1.4-8.1l8.6-.9v-15h24v38.3c-.5,2.4-10.8,1.5-13,1.7v26c-3.5-.6-6.7.8-10,1,0,5,0,10,0,15-10.1-.7-15.9.6-14,12l-10.1.4-1.1,9.4c-1.4,2.3-30.4.7-35.2,1-3-1-1.2-8.3-1.6-10.9l-13,1v-10s14,0,14,0v9h33v-8s7.9-1.1,7.9-1.1v-4.9c.1,0,8.1,0,8.1,0l1-13c3.6-.2,7.4.3,11,0,0-9.3-.6-18.8,1-27.9h8.9s0-13,0-13h4c-.3-2.1,1-12.8-1.5-13-8.8,4.1-13.8-1.4-10.5,12l-11,1.5v5.5s-10,.4-10,.4l-.4,10.6-11.6.9-.5,10h-6.5s-1.1,4.9-1.1,4.9h-16v10.8c-.1,0-21.3,1.3-21.3,1.3-3,1-1.2,8.3-1.6,10.9l-14,1v11s-18,0-18,0c0-4,0-8,0-12-3.8.1-6.9,1.3-10.9,0v-12.9c0,0,9.9,0,9.9,0l1.2-9.8,11.8-1.2v11.9c-.1,0-12,1.1-12,1.1,0,3.7,0,7.3,0,11Z"/>
  <path class="st0" d="M935.2,371.1v8.4c.1,0,1.6,1.5,1.6,1.5l26.3-.9.9,5.6,11.1.4,1.1,9.9c5.2-1.5,5.8,2.3,8.6,2.9s4.9.2,7.3.2l-1,16h10s0,70.9,0,70.9c-3-.6-13.8,1.5-14.8-1.6l.7-62.7-.8-1.2c-1.3-.9-10.7-1.2-12.1,1.1v43.5h-12s-.1-48.3-.1-48.3l-1.5-1.5-6.9-1.1.6-17-8.6-.9-.4-9.1h-42.5c-2.3-1.6-1.4-4.6-1.5-7-7-.6-14.5,2.1-21.5,1.1s-7.5-3.5-12.4-2v-8h67.9ZM968.2,409.1c5.3.6,8.5,0,6.6-6.1l-6.6-.9v7Z"/>
  <path class="st0" d="M484.7,660.8c.6,0,1.9-1,3.4-1,6.2-.2,12.4.2,18.5,0v21.5c5.7,3.5,14.2-1,21,.5v-34h-19l-.2-14.4-1.3-1.6h-22.5v-8s-7,0-7,0v-15h16l1,8,16-.6c3.2.9,3.4,5.6,4.5,5.6h14.5v8s12,0,12,0v53.9l-12.6,1,.6,11h-22l-1-7h-10c-2.2-4.7,3-7.2,3.1-7.6.3-1.6-1.8-5.1-1.1-7.3h-14c-1.6-4.6.1-8.3,0-13-3.6.2-7.4-.2-11,0v-9s10,0,10,0c-.6,3.1.9,6,1,9Z"/>
  <path class="st0" d="M788.4,571.9v18l-17,1v14h-8s0,12,0,12l-69.3,1.1c-2.6-3.8-1.1-7.9-.5-12l10.3-.2,2.7-6.8h9.9c0,0,0-9.1,0-9.1h16l.9-8.6,23.4-.6,1.5-1.5v-7.4h30.1Z"/>
  <path class="st0" d="M841.3,652.3c1.9-2.8,5.8-.8,8.3-1.5s1-2.4,2.3-2.9c2.1-.7,5.8.6,7.4-.6l.9-8.6c7.8-.6,14.8-3.1,23-2v6s8,0,8,0l.9,5.6,9.1.4v8s10.9,1.1,10.9,1.1l-.5,14.9,8.6,1v9.4c.1,0,1.6,1.5,1.6,1.5h6.4c0,.1,0,8.1,0,8.1h-8s0-7,0-7h-9s0-12,0-12h-24.5c-2.8,1.3-.9,8.4-1.5,9h-12.4s-.6-9-.6-9h13s0-14,0-14l-12.1.4-.9,8.6c-10.3-1-19.6,3.4-30,3v12s-11,0-11,0v18l-14,.4-.9,13.6h-9s.4-12.1.4-12.1l8.6-.9v-19h5s0-12,0-12h18.5l1.5-1.5v-18Z"/>
  <path class="st0" d="M548.6,433v23h10v53.4c-2.4,2.7-6.7,1.1-10,1.5v18l-9.4.9c-3.7-.9-.2-15.6-.6-18.9l9.6-.9c1.6-4.8-.5-9.7-.6-14.5-.2-9.7,2.8-23.6,1-33-.7-3.7-4.1-2.4-7-2.5v-11s-20,0-20,0v35h-8v36h-13v17h-15l1-14.9,4.5-1,.4-6.1,5.6-.9.4-10.1h8s0-30,0-30h6.4c0-.1,1.5-1.6,1.5-1.6l-.7-39.2c1.6-2.6,30.8-.6,35.8-.1Z"/>
  <path class="st0" d="M498.7,590.9v-7s-10,0-10,0l.9-8.6,38-.4.9,8.6,20,.4.9,8.6,13.6,1.4.4,14.1c2.1.3,10.3-1.1,10.7,1.4l-.3,15.6,10.6.9c.2,5.1,2.6,34.1-.1,35.8h-9.9c0,.1-.9,12.7-.9,12.7l-12.1.4v-19h11s-1-25-1-25h-10.9c-2.2-5.3,2.1-11.4-1.6-16h-16.5c-.7-4.7,1.6-11.2-1.5-15h-20.5v-9h-22Z"/>
  <path class="st0" d="M96.1,269.2c-7.6,0-15.3,0-23,0l1.1-11.9c7.5.5,14.5-2,21.8,0,.2,4,0,8,0,11.9,8.9,0,17.9-.1,26.8.1l1.1,14.9h7.4c0,.1,1.5,1.6,1.5,1.6l-.7,134.7,1.6,1.4,4.3.2v16h-23v-15.5c-.9-1.4-2-1.4-3.4-1.5-3.5-.4-28.3-.2-29.4,1.2v8.9c-.1,0-9.1,0-9.1,0,.5-5.7,0-14,1-19.5s.5-1.9,1.5-2.5h38.5v12c3-.3,6.9,1.1,9-1.5v-125.4h-8c-.8-.8,1.5-9.5-1.5-11h-17.5c0-4.6,0-9.3,0-14Z"/>
  <path class="st0" d="M113.5,124.3c2.7-.8,1.1-9.5,1.5-12l26,1v10s9.5.9,9.5.9l.4,11.1-8-1-1,11-14.1.4-.9,11.6-13.1.4-.9,6.6c-6,0-11,1.8-16.9,0v-11.9h-15v-16l15-1v-11s17.5,0,17.5,0Z"/>
  <path class="st0" d="M579.6,545.9l1,14h11s.1,4.9.1,4.9l6.8,1.1v44.3c-1.2,3.1-11,1.1-14,1.6.6-9.9-2.9-20.2,0-30l-10-1-1-17h-50l-.2-6.3-1.3-1.7h-19.5l1-10h75.9Z"/>
  <path class="st0" d="M95.1,212.3v8s19,1,19,1l1,9,15.8-.9,1.1,7.9h17.3c2.5,1,1.5,4.8,1.6,7h16s.1,6.3.1,6.3l1.5,1.5c7.7.9,14.6-2.1,22.3.2l1.1,43.9-9.6-.9.4-18.5-1.5-1.4-6.4-.6-1.9-7.1-6-.5-1-9.9-23-.4-.9-6.6h-11s0-8,0-8h-16l-1-9h-22c1.5-5.8-4.3-5.5-4.1-10.9l-14.9-.5-.9-9.6h23Z"/>
  <path class="st0" d="M279.9,574.9v15l-15,1c2.8,15.4-7.4,11.7-18.4,11.9l-.6,3h-6.9c0,.1,0,11.1,0,11.1h-24.5c-3,1.4-.7,10.3-1.5,11l-22,1v-20h14.5c2.5-1.9,1.3-5.3,1.5-8h9s0-11,0-11h21l1-7.9,23.3-.2c2.5-.8,1.5-4.7,1.6-6.9h17Z"/>
  <path class="st0" d="M199,79.4l.9,10.6,11.1.4v16c-5-1.7-11.3-1.4-16.4-.1l-.6,6.1h-15.5c-2.8,2.6-1,7.4-1.5,11h-25v-11s-10,0-10,0v-15h20v-10h17v-8h20Z"/>
  <polygon class="st0" points="226.9 112.4 228.1 121.2 242.5 122.3 242.5 135.4 227.9 135.8 226.9 142.3 207.9 142.3 207.9 154.3 191 154.3 190 145.8 179 146.3 179 123.3 200 123.3 200 112.4 226.9 112.4"/>
  <path class="st0" d="M168,140.3l.9,6.6,8.1.4.4,5.1,5.1.9.5,11-14.1,1.5-.9,9.5-16,.4-.9,11.6h-18c-.6-.6,1.3-7.7-1.5-9h-14.5v-13s12,0,12,0v-7s14-1,14-1v-10s9,0,9,0v-7s16,0,16,0Z"/>
  <path class="st0" d="M630.5,745.7c.1-9.6,0-19.3,0-29h-14v24l-8.6-.9-.4-11.1h-22v-13s-11,0-11,0v-10h63.9l.5,10h4.9s1.6,1.5,1.6,1.5v28.5c-5,0-10-.1-15,0,0,4.3,0,8.7,0,13h-57s-.4-10.1-.4-10.1l-9.6-.9-1-31h11v30c4.6.8,9.2-.9,13.4-1,14.6-.5,28.9.4,43.5,0Z"/>
  <path class="st0" d="M795.4,565.9c0-2.5-.7-5.7,2.5-6h47.9c0,0,2.5,6.5,2.5,6.5l10.9-.4,1.1,6.8c.6.6,11.1-.6,13.3,0s.9,2.2,2.4,2.8,4.4.2,6.2,1.3v11.9c.1,0-22.9-1-22.9-1v-12s-27,0-27,0l-1,7h-13.3c0,.1-1.5,1.6-1.5,1.6v7.4c-.1,0-9.2.4-9.2.4l-.9,8.6h-14v16l-10,1v16l-12.6-.9-.3-14.4,1.5-1.5h7.4c0-.1,1.1-15,1.1-15l12.4-1,.4-20,24-1v-14h-21Z"/>
  <path class="st0" d="M649.5,622.9l-13,1v9s-5.1.4-5.1.4l-.9,5.6h-17v10h-14v-12h14v-7s8.4-.1,8.4-.1c2.3-.8,1.6-3.9,1.6-5.9l10.9-1.1,1.1-20.4-2-1.1-10.9.6v10s-9,0-9,0l1-36h21.5c3.6,3-.1,13.1,1.9,16,3.4,2.5,8.7-.9,11.6,2.4v28.5Z"/>
  <path class="st0" d="M401.8,616.9l-.4,13.1-8.6.9-.4,7.1-7.6.9v35.5c2.1,2.6,6,1.2,9,1.5v28.5c1.8,3.4,13.3.4,14,.9l1,13.6h-15l-1.1-11.8h-6.9v-31.1h-8v-18.5c-1.3-2.2-9.7-2-11.1-1.1l-.8,1.2,1,15.7,5.7,3.3-.8,16.9-11.9.3c-1.8-1.5-.1-18.1-1.2-21.2s-4.9-1.4-4.9-4.1v-16.5c6.1,1.6,6.1-3.4,8.1-7.9h3.4s1.5-15.1,1.5-15.1h14.5c.3,0,3.4-1.2,3.6-1.6.3-3.4-1.4-7.9,1.4-10.4h15.5Z"/>
  <path class="st0" d="M918.7,100.4c.5,0,2.4,1.1,2.5,1.7l.9,9.9,10.4.6,1.6,2.4c-.7,3.6,1.6,17.3-1.7,18.3s-4.5-1.6-5.5,4h-5.9c0,.1,0,12.1,0,12.1h-28.5c-3.1-1.6-.6-11.1-1.5-12h-9s0-23.5,0-23.5c0-.3,1-2.3,1.7-2.5h8.3s0-11,0-11c8.1.9,18.8-1.3,26.5,0ZM920.2,112.4h-24v25h16.5l1.5-6h6s0-19,0-19Z"/>
  <path class="st0" d="M887.3,421.1v-13s6,1,6,1c1.1-2.8,1.5-5.8-1.4-7.7l-5.3,2.1.8,3.5h-11s0-10,0-10c12.3-.4,24.7-2.1,37,0v10s13,0,13,0v46.9s-14,0-14,0l1-33h-26Z"/>
  <path class="st0" d="M265.9,142.3v12h-14c-.4,3.3,1.2,7.6-1.5,10h-16.5v12h-22l-.9,8.6-14.1.4v9s-17,0-17,0v8.5s-13,.5-13,.5v7s-14,.4-14,.4v-7.4s12.9-.1,12.9-.1l1.1-8.9,12.1-.4.9-9.6h17v-9h15c-.2-3-.9-11,3.5-11h17.5v-11h19v-11h14Z"/>
  <path class="st0" d="M562.6,689.8v15l-13.1.4-.9,11.6-17,1c1.3,3.4,2.2,9.1-.5,12h-14.5v11s-27,1-27,1v-13s20-1,20-1v-10s19-1,19-1l.9-11.6,13.1-.4v-15h20Z"/>
  <path class="st0" d="M323.8,606.9v20l-18,1c-.8-.8,1.6-10.4-1.5-12h-14.5v26h-9s1-42,1-42l8.6-.9.4-9.1h14.5c3.9,4.4-.9,12.6,3,17h15.5Z"/>
  <path class="st0" d="M843.3,154.3h-13s.6,21,.6,21l-11.6.9v8s-9,0-9,0v16h-9s-1.1,7.9-1.1,7.9h-7.9c0,.1.4-13.9.4-13.9l6.6-.9,1.1-9.9h7.5s.6-8.9.6-8.9l5.8-1.2.5-9,5.6-.9v-8.9c.1,0,10-1.1,10-1.1v-22c4.1.6,9.8-1.5,13,1.5v21.5Z"/>
  <path class="st0" d="M105,437v11s9,1,9,1v63.9h-9v-63.4l-1.5-1.3c-.4,0-.8.8-1,.8h-28.5v-12h31Z"/>
  <path class="st0" d="M205.9,530.9v19h-15c-.3.7,1,1.2,1,1.5v23.5h-10s.9-24.3.9-24.3c-1.2-3.6-11.4.3-14.8-1.7v-17.9c0,0,37.9,0,37.9,0Z"/>
  <path class="st0" d="M1036.1,565.9v43h-11s0-8,0-8h-13s0-35,0-35c8.1-1.1,15.8-.7,24,0Z"/>
  <path class="st0" d="M672.5,725.8h8.8c0,.1,1.1,11,1.1,11h5s0,25.5,0,25.5c2.4,2.7,6.7,1.1,10,1.5v17h8v18h-9v-17.5l-1.5-1.5h-14.5v-18h-8v-36Z"/>
  <path class="st0" d="M226.9,67.4l.4,11.1,6.6.9.9,6.6,12.1.4v13s16,0,16,0v13h14.5c3,3.2.9,8.8,1.5,13h-17v-12h-15c1.1-5.4-1.9-8.9-2.2-13.8l-11.8-1.2v-9.9c-.1,0-8.5-1.1-8.5-1.1l-.5-9.1-12-1v-10s15,0,15,0Z"/>
  <polygon class="st0" points="183 474 183.4 481.1 191 482 191 517 180 517 180 502 167 502 167 474 183 474"/>
  <path class="st0" d="M439.7,729.8h20v7s9,0,9,0v6h-31v-10h-28v-13c4.6.9,9.2-.9,13.5-1.1s3.6,1,5.1,1c10.1,0,12.4-4.9,11.4,10.1Z"/>
  <path class="st0" d="M206.9,243.2c-5.3-.2-10.6,0-16,0l-1.1-9.9h-9.9c0-.1,0-11.1,0-11.1h11.9c0-.1,1.1-6,1.1-6h14v-9h14l.4-6.1,10.6-1.4.9-5.6,11,.6v6.4s-12,0-12,0l-1.1,6.8h-9.9c0,.1,0,9.1,0,9.1h-15v7h-14v8h15c-.1,3.6.2,7.4,0,11,8,.3,16,.8,24,1v12h-25c-.6-4.4.8-8.7,1-13Z"/>
  <path class="st0" d="M1021.1,505l.4,8.1,8.6.9c-2.1,2.6,0,5.3-.3,7.4s-1.6,2.8-1.7,5.1c-.3,4.9.1,10,.2,14.9l1.5,1.5h6.4c0,.1-.6,9.1-.6,9.1h-7.4s0-9,0-9h-17c-.8-4.5,3-24.5,0-26.5l-5.1-.4v-11h15Z"/>
  <path class="st0" d="M748.4,722.8v32h5v25h-9s0-11,0-11l-4-.5c-1.6-1.1-1.1-17.8-1-21.1.2-6.7,3.6-8-6.9-7.5v-17h16Z"/>
  <path class="st0" d="M100,96.4c0-3.3,0-6.7,0-10l14.1-.4.9-6.6h14v-8h14v-9h14v-9s11,0,11,0v10s-9.1.4-9.1.4l-.9,8.6h-15l-.9,9.6-12,.5-1.7,4.8h-13.4c0,.1-1.1,9-1.1,9-4.6,0-9.3.3-13.9.1,0,3,0,6,0,9h-16v-10c5.3-.9,11.1.8,16,1Z"/>
  <polygon class="st0" points="201.9 332.1 201.9 351.1 183 351.1 183.1 301.3 189.9 300.6 191.8 301.8 191.4 331.2 201.9 332.1"/>
  <path class="st0" d="M93.1,548.9h10.4c0,0,2.2-3.9,2.2-3.9h8.4c-.6,6.6,2.2,12.3,0,18.9h-22v12h-18v-13h19v-14Z"/>
  <path class="st0" d="M184,459h-14l-1,9h-25.5l-1.3-1.7c-.2-1.9-.4-4-.2-5.9s-.2-3.3,1.5-4.4h24.5v-10s14.5-.7,14.5-.7c2.7.5,1,11.1,1.5,13.7Z"/>
  <path class="st0" d="M192,356.1v51.4c-2.1,2.4-7.8,2.4-10,0v-50c0-.2,1-2.4,1.7-2.6l8.3,1.1Z"/>
  <rect class="st0" x="105" y="301.2" width="9" height="55.9"/>
  <path class="st0" d="M355.8,799.7l-.9-9.6-13.1-.4v-11.9c.1,0,17-1.1,17-1.1.8.8-1.5,9.5,1.5,11h18.5v12h-23Z"/>
  <path class="st0" d="M96.1,669.8l-21,1,.4-14.1c4.7-1.4,13.3-3.1,14.2,3.1h6.4c0,0,.9,9.5.9,9.5l12.1.4v14.5c-3.5,3.5-8.8.4-13,.5v-15Z"/>
  <rect class="st0" x="93.1" y="361.1" width="21" height="22"/>
  <path class="st0" d="M149,369.1h-15v-28c5.5-.8,10.3,1.8,15.6,2.9l-.6,25Z"/>
  <path class="st0" d="M919.2,514c0,5.5,3.3,11.5-1.5,16h-29c-6.3-12,5.5-8.7,13.5-9v-7s17,0,17,0Z"/>
  <path class="st0" d="M151,292.2v48h-9c-.3-16,1.8-31.9,1-48h8Z"/>
  <polygon class="st0" points="168 773.7 155 773.7 153.9 746.3 168 743.7 168 773.7"/>
  <polygon class="st0" points="152 505 152 543.9 142.4 543 142.1 506.6 143.6 505.1 152 505"/>
  <rect class="st0" x="205.9" y="276.2" width="16" height="24"/>
  <path class="st0" d="M633.5,664.8v24.5c0,.3-1.2,3.4-1.6,3.6l-11.9-1c-1.9-2.8.4-14.8.6-18.5s-1.3-4-1.1-6c.6-4.6,10.6-1.8,14-2.5Z"/>
  <path class="st0" d="M172,399.1v23.5c-4.5,3.8-10.7,1.9-16,3.5.3-3-.4-6.6,0-9.5s2.6-1.3,3.1-3.9-.5-13,0-13.5h13Z"/>
  <path class="st0" d="M142,604.9c.2,3.8,2,7.6-.6,11.1-10.6.6-20.8,1.7-31.4,0-1,1,1.7,13.2-1.5,15h-21c-3.3,0,.6-13.6-.5-16l22.3.9c3-1,1.2-8.3,1.6-10.8h31Z"/>
  <path class="st0" d="M142,636.8l.9,9.4c-.5,1.2-4.7,2.6-5.4,2.6h-24.5v-12h29Z"/>
  <rect class="st0" x="308.8" y="734.7" width="15" height="23"/>
  <path class="st0" d="M488.7,799.7v17c-8.4-1.4-8.4,7.4,0,6v16h-9c1.1-6-1.1-13-1.1-18.5,0-6.3,2.2-13.7,1.1-20.5h9Z"/>
  <rect class="st0" x="469.7" y="703.8" width="24" height="13"/>
  <path class="st0" d="M560.6,183.3c18.8-2.9,15.8,6.5,14,21h-15c-.4-1.1,1-2.2,1-2.5v-18.5Z"/>
  <path class="st0" d="M247.9,628.9c.7-7.1-4-13.8-1.4-21h9.4s.4,7.1.4,7.1l5.6.9v13h-14Z"/>
  <path class="st0" d="M522.6,779.7h-14.5l-1.5-1.5v-14.5h15.5c3.8,4.4-.2,10.8.5,16Z"/>
  <path class="st0" d="M782.4,142.3l-12.6-.9.4-13.5,5.1-.6v-11s4,0,4,0c-2.2,3.9,3,8,3,8.5v17.5Z"/>
  <polygon class="st0" points="152 474 152 498.5 150 499.6 142 499 143.1 474.1 152 474"/>
  <polygon class="st0" points="831.3 724.8 831.3 741.7 816.3 741.7 817.3 724.8 831.3 724.8"/>
  <path class="st0" d="M789.4,543.9l.9-8.6c9-2.6,18.2,6.6,16-8.4h9.4s.6,9,.6,9h-10s0,8,0,8h-17Z"/>
  <path class="st0" d="M866.3,292.2c2.1,5-.8,9.7,0,15l-14,.6c-2.3-1.7-.6-12.4,0-15.6h14Z"/>
  <rect class="st0" x="479.7" y="766.7" width="9" height="26"/>
  <path class="st0" d="M769.4,79.4c1.3,5.2,1.3,9.8,0,15h-15v-15h15Z"/>
  <path class="st0" d="M499.7,260.2h-9v-26c3,.3,6.9-1.1,9,1.5v24.5Z"/>
  <path class="st0" d="M716.4,745.7c-3-.1-6,0-9,0l-1-25h10c0,8.3,0,16.7,0,25,2.8.1,6.2-.9,8,1.5v14.5l-7.6-.9c-1-1.4-.4-12.2-.4-15Z"/>
  <polygon class="st0" points="776.4 486 761.9 486 762.3 471.4 776 471.9 776.4 486"/>
  <path class="st0" d="M522.6,812.7v14c-4.8,1.6-10,.9-15,1v-15h15Z"/>
  <path class="st0" d="M523.6,799.7h-16v-14h14.5c3.1,3.5.9,9.6,1.5,14Z"/>
  <path class="st0" d="M867.3,184.3v15h-14v-16c4.7,0,9.5-.5,14,1Z"/>
  <polygon class="st0" points="152 545.9 152 568.9 142 568.9 142 546.9 152 545.9"/>
  <path class="st0" d="M961.2,119.8c.8-2.6,10.3-1.3,12.9-1.4l.7,14.9-13.6.9v-14.5Z"/>
  <polygon class="st0" points="831.3 510 831.3 526 817.3 526 817.3 511 831.3 510"/>
  <rect class="st0" x="254.9" y="776.7" width="14" height="15"/>
  <path class="st0" d="M695.5,583.9c0-2.7,0-5.3,0-8h10s-.9,7.6-.9,7.6c-1.3.9-6.9.5-9.1.4,0,2.3.2,4.6,0,6.9-3.7,1.4-7.2,0-10.9,0-.2,4.6.1,9.3,0,14h-15v-14c5,0,10,0,15,0,.1-2.8,0-5.3,1-8,3.4.7,6.4.9,9.9,1Z"/>
  <path class="st0" d="M64.1,178.3v-11.3c1.3-3.5,13.4.8,17-.7v12h-17Z"/>
  <path class="st0" d="M963.2,339.1v14h-14v-14c4.9-1.3,9-1.3,14,0Z"/>
  <path class="st0" d="M458.7,804.7v18h-11c0-3.8.2-7.7,0-11.5s-2.7-6,.5-6.5c3.2-.5,7.2.3,10.5,0Z"/>
  <rect class="st0" x="993.2" y="321.2" width="13" height="15"/>
  <path class="st0" d="M168,626.9h-15v-11.8c1-1.3,12.6-1.7,14-.7l.9,12.6Z"/>
  <polygon class="st0" points="200 48.4 199.9 54.4 210.9 54.4 210.9 65.4 198.9 65.4 198.5 55.3 190.4 53.5 190 48.4 200 48.4"/>
  <rect class="st0" x="105" y="517" width="9" height="21"/>
  <polygon class="st0" points="745.4 500 746.4 509 737.5 510 737.4 519 727.4 519 728.4 509.4 736.4 510 736.4 500 745.4 500"/>
  <rect class="st0" x="981.2" y="338.1" width="12" height="15"/>
  <polygon class="st0" points="339.8 495 340 505.3 341.5 506.9 347.7 507.1 347.8 515 339.8 515 339.8 507 330.8 507 330.8 495 339.8 495"/>
  <path class="st0" d="M91.1,521v15.5c-2.4,2.7-6.7,1.1-10,1.5l1.1-16.9h8.9Z"/>
  <polygon class="st0" points="152 571.9 152 588.9 142 588.9 142 572.9 152 571.9"/>
  <path class="st0" d="M114,200.3c6,.3,12-.2,18,0v8s-18,0-18,0c0-2.7,0-5.3,0-8-5.3-.3-11.3-1.9-17-1l1-10,15.1.4c1.7,1.1.9,8.1.9,10.6Z"/>
  <path class="st0" d="M97.1,179.3v9h-14.5c-2.6-2.1-1.2-6-1.5-9h16Z"/>
  <rect class="st0" x="783.4" y="445" width="9" height="14"/>
  <rect class="st0" x="98" y="767.7" width="10" height="12"/>
  <path class="st0" d="M841.3,495v12s-9.1-.4-9.1-.4c-1.9-1.3-.5-9-.9-11.6h10Z"/>
  <polygon class="st0" points="786.4 754.7 786.9 765.8 777.4 766.7 777.8 755.7 786.4 754.7"/>
  <rect class="st0" x="157" y="430" width="10" height="11"/>
  <polygon class="st0" points="192 580.9 191.5 591 182.9 591.5 182.4 581.8 192 580.9"/>
  <polygon class="st0" points="458.7 838.7 447.7 838.6 448.8 829.8 457.8 829.1 458.7 838.7"/>
  <path class="st0" d="M837.3,214.3c-.3,2.3.9,8.3-.9,9.6l-9.1.4v-10s10,0,10,0Z"/>
  <path class="st0" d="M343.8,175.3c0-1.8-.6-5.5.9-6.6l8.9.7-.8,5.4c-2.9.9-6.1.3-9.1.4-.1,2.6,0,5.3,0,8h-12s.9-7.6.9-7.6c3.6-.9,7.4-.3,11.1-.4Z"/>
  <polygon class="st0" points="330.8 493 320.8 492 320.8 483 329.8 482.4 330.8 493"/>
  <rect class="st0" x="73.1" y="106.4" width="10" height="9"/>
  <rect class="st0" x="295.9" y="67.4" width="9" height="10"/>
  <path class="st0" d="M532.6,485c-.3,2.2.8,7.3-.9,8.6l-9.1.4v-9s10,0,10,0Z"/>
  <path class="st0" d="M244.9,193.3v-10l8.1.4c3.1,8.3.5,10.7-8.1,9.6Z"/>
  <rect class="st0" x="316.8" y="770.7" width="8" height="11"/>
  <path class="st0" d="M370.8,158.3v9s-9,0-9,0c.3-2.3-.9-8.2,1-9.6l8,.6Z"/>
  <rect class="st0" x="860.3" y="101.4" width="9" height="9"/>
  <path class="st0" d="M142,274.2c-.3,2.2.8,7.3-.9,8.6l-8.1.4v-9s9,0,9,0Z"/>
  <polygon class="st0" points="331.8 757.7 332.3 767.8 340.8 768.7 340.8 776.7 332.8 776.7 332.8 768.7 324.8 768.7 324.8 757.7 331.8 757.7"/>
  <rect class="st0" x="73.1" y="244.2" width="9" height="7"/>
  <path class="st0" d="M642.5,328.1v37h-7s0,9,0,9h-38v-31.5c0-.3,1-2.3,1.7-2.5h6.3s0-12,0-12h37Z"/>
  <path class="st0" d="M430.2,336.1c3.6.6,3,6,3.5,8.9,1.2,1.1,13-1.7,14.9,1.6v28.5c-10.9-1-21.9,1.7-32.5,0l-.5-8.1h-7.4c0-.1-1.5-1.6-1.5-1.6l.9-29.3c6.8.8,16-1.1,22.5,0Z"/>
</svg>